<svg xmlns="http://www.w3.org/2000/svg" xmlns:xlink="http://www.w3.org/1999/xlink" width="500" zoomAndPan="magnify" viewBox="0 0 375 374.999991" height="500" preserveAspectRatio="xMidYMid meet" version="1.0"><defs><g/><clipPath id="77a07b3a14"><path d="M 186 156 L 239.597656 156 L 239.597656 185 L 186 185 Z M 186 156 " clip-rule="nonzero"/></clipPath><clipPath id="4fc0cdd87d"><path d="M 176 177 L 239.597656 177 L 239.597656 197 L 176 197 Z M 176 177 " clip-rule="nonzero"/></clipPath></defs><path fill="#ffffff" d="M 232.644531 116.46875 C 232.367188 114.308594 231.804688 112.183594 230.960938 110.152344 C 229.367188 106.328125 226.785156 102.847656 223.265625 100.132812 C 212.507812 91.835938 197.058594 93.828125 188.757812 104.585938 L 165.054688 135.3125 C 171.90625 136.316406 180.089844 139.992188 187.886719 146.003906 C 189.515625 147.257812 191.042969 148.554688 192.472656 149.882812 C 194.246094 149.375 196.109375 148.949219 198.046875 148.617188 C 195.863281 146.386719 193.441406 144.242188 190.8125 142.214844 C 185.121094 137.820312 179.097656 134.488281 173.292969 132.46875 L 192.550781 107.511719 C 195.78125 103.320312 200.453125 100.640625 205.703125 99.960938 C 210.953125 99.285156 216.152344 100.691406 220.339844 103.925781 C 223.082031 106.035156 225.21875 108.828125 226.535156 111.992188 C 227.210938 113.621094 227.671875 115.335938 227.898438 117.082031 C 228.578125 122.332031 227.164062 127.53125 223.933594 131.722656 L 211.484375 147.855469 C 213.410156 147.957031 215.292969 148.144531 217.105469 148.40625 L 227.722656 134.648438 C 231.871094 129.265625 233.449219 122.714844 232.644531 116.46875 " fill-opacity="1" fill-rule="nonzero"/><path fill="#ffffff" d="M 182.554688 193.195312 C 174.238281 203.875 158.84375 205.835938 148.113281 197.558594 C 137.355469 189.253906 135.363281 173.804688 143.660156 163.046875 L 161.976562 139.300781 C 168.007812 139.488281 176.539062 142.695312 185.253906 149.417969 C 186.144531 150.101562 186.996094 150.796875 187.816406 151.496094 C 178.96875 155.132812 173.292969 161.128906 173.292969 168.03125 L 173.292969 179.328125 C 173.292969 184.738281 176.785156 189.59375 182.554688 193.195312 " fill-opacity="1" fill-rule="nonzero"/><g clip-path="url(#77a07b3a14)"><path fill="#ffffff" d="M 197.003906 174.460938 L 230.050781 156.148438 C 235.925781 159.199219 239.632812 163.433594 239.632812 168.03125 C 239.632812 177.089844 225.253906 184.746094 208.234375 184.746094 C 202.007812 184.746094 196.148438 183.71875 191.210938 181.976562 C 189.640625 181.425781 188.164062 180.800781 186.800781 180.113281 L 197.003906 174.460938 " fill-opacity="1" fill-rule="nonzero"/></g><path fill="#ffffff" d="M 176.839844 168.03125 C 176.839844 167.878906 176.847656 167.726562 176.855469 167.570312 C 176.859375 167.488281 176.867188 167.410156 176.875 167.328125 C 176.878906 167.242188 176.886719 167.15625 176.898438 167.074219 C 176.910156 166.9375 176.929688 166.808594 176.953125 166.679688 C 176.964844 166.570312 176.984375 166.460938 177.007812 166.351562 C 177.035156 166.210938 177.066406 166.074219 177.101562 165.9375 C 177.144531 165.765625 177.191406 165.59375 177.242188 165.425781 C 177.285156 165.277344 177.335938 165.132812 177.390625 164.984375 C 177.40625 164.9375 177.425781 164.886719 177.445312 164.835938 C 177.488281 164.722656 177.535156 164.605469 177.589844 164.484375 C 177.636719 164.367188 177.683594 164.257812 177.738281 164.148438 C 177.824219 163.964844 177.910156 163.789062 178.011719 163.613281 C 178.140625 163.359375 178.289062 163.105469 178.449219 162.855469 C 178.511719 162.753906 178.578125 162.648438 178.652344 162.550781 C 179.011719 162.019531 179.421875 161.496094 179.882812 160.984375 C 179.992188 160.859375 180.113281 160.734375 180.234375 160.605469 C 180.234375 160.601562 180.242188 160.597656 180.25 160.585938 C 180.394531 160.4375 180.539062 160.292969 180.691406 160.144531 C 180.816406 160.027344 180.941406 159.90625 181.074219 159.789062 C 181.167969 159.699219 181.265625 159.613281 181.367188 159.527344 C 181.472656 159.433594 181.582031 159.335938 181.695312 159.242188 C 181.84375 159.117188 181.992188 158.992188 182.152344 158.871094 C 182.710938 158.425781 183.316406 157.996094 183.953125 157.578125 C 184.117188 157.464844 184.296875 157.355469 184.472656 157.25 C 184.679688 157.121094 184.886719 156.996094 185.101562 156.871094 C 185.3125 156.746094 185.527344 156.621094 185.746094 156.503906 C 185.96875 156.382812 186.1875 156.261719 186.417969 156.144531 C 186.640625 156.027344 186.871094 155.910156 187.101562 155.800781 C 187.222656 155.734375 187.339844 155.679688 187.464844 155.621094 C 187.695312 155.511719 187.929688 155.402344 188.167969 155.296875 C 188.292969 155.238281 188.421875 155.179688 188.550781 155.125 C 188.785156 155.023438 189.03125 154.921875 189.277344 154.820312 C 189.773438 154.617188 190.285156 154.421875 190.804688 154.226562 C 192.273438 153.691406 193.824219 153.222656 195.445312 152.824219 C 195.507812 152.8125 195.570312 152.796875 195.636719 152.78125 C 196.015625 152.6875 196.398438 152.601562 196.78125 152.519531 C 197.046875 152.460938 197.308594 152.410156 197.570312 152.355469 C 197.632812 152.34375 197.703125 152.328125 197.769531 152.316406 C 197.941406 152.28125 198.113281 152.246094 198.289062 152.21875 C 198.332031 152.207031 198.375 152.199219 198.417969 152.195312 C 198.738281 152.136719 199.0625 152.078125 199.386719 152.03125 C 199.507812 152.007812 199.628906 151.988281 199.753906 151.96875 C 200.144531 151.90625 200.53125 151.855469 200.921875 151.800781 C 200.933594 151.796875 200.949219 151.796875 200.957031 151.796875 C 203.304688 151.484375 205.738281 151.320312 208.234375 151.320312 C 208.425781 151.320312 208.613281 151.320312 208.804688 151.328125 C 208.859375 151.328125 208.917969 151.328125 208.976562 151.332031 C 209.335938 151.332031 209.691406 151.339844 210.042969 151.355469 C 210.160156 151.355469 210.273438 151.359375 210.386719 151.363281 C 210.832031 151.378906 211.285156 151.402344 211.722656 151.433594 C 212.167969 151.460938 212.609375 151.488281 213.046875 151.527344 C 213.171875 151.539062 213.289062 151.546875 213.410156 151.5625 C 213.800781 151.601562 214.191406 151.644531 214.578125 151.6875 C 218.71875 152.15625 222.585938 153.078125 225.988281 154.347656 L 200.625 168.398438 L 183.265625 178.019531 C 179.25 175.210938 176.839844 171.738281 176.839844 168.03125 " fill-opacity="1" fill-rule="nonzero"/><g clip-path="url(#4fc0cdd87d)"><path fill="#ffffff" d="M 239.632812 177.058594 L 239.632812 179.328125 C 239.632812 188.386719 225.253906 196.039062 208.234375 196.039062 C 199.027344 196.039062 190.585938 193.796875 184.789062 190.308594 C 184.222656 189.96875 183.683594 189.613281 183.175781 189.253906 C 183.023438 189.148438 182.875 189.039062 182.726562 188.929688 C 182.578125 188.820312 182.433594 188.707031 182.289062 188.597656 C 181.414062 187.914062 180.628906 187.195312 179.949219 186.453125 C 179.851562 186.347656 179.757812 186.242188 179.667969 186.132812 C 179.511719 185.960938 179.371094 185.789062 179.234375 185.613281 C 179.144531 185.496094 179.058594 185.382812 178.972656 185.265625 C 178.320312 184.390625 177.8125 183.480469 177.453125 182.546875 C 177.417969 182.445312 177.378906 182.34375 177.34375 182.246094 C 177.300781 182.121094 177.257812 181.992188 177.21875 181.867188 C 177.214844 181.84375 177.207031 181.816406 177.195312 181.785156 C 177.164062 181.667969 177.128906 181.546875 177.101562 181.421875 C 177.066406 181.289062 177.035156 181.148438 177.007812 181.011719 C 176.980469 180.871094 176.957031 180.734375 176.9375 180.59375 C 176.914062 180.457031 176.898438 180.316406 176.886719 180.171875 C 176.875 180.070312 176.867188 179.972656 176.859375 179.867188 C 176.847656 179.6875 176.839844 179.507812 176.839844 179.328125 L 176.839844 177.058594 C 177.210938 177.5 177.609375 177.933594 178.027344 178.351562 C 178.210938 178.53125 178.394531 178.710938 178.585938 178.882812 C 178.976562 179.25 179.382812 179.601562 179.816406 179.953125 C 179.945312 180.054688 180.074219 180.160156 180.203125 180.253906 C 180.339844 180.367188 180.480469 180.472656 180.625 180.578125 C 180.632812 180.585938 180.644531 180.59375 180.652344 180.597656 C 180.890625 180.78125 181.132812 180.953125 181.378906 181.121094 C 181.632812 181.296875 181.890625 181.46875 182.15625 181.636719 C 182.160156 181.640625 182.164062 181.648438 182.171875 181.648438 C 182.414062 181.804688 182.660156 181.964844 182.914062 182.113281 C 182.988281 182.160156 183.0625 182.203125 183.136719 182.246094 C 183.304688 182.351562 183.476562 182.445312 183.648438 182.542969 C 183.816406 182.640625 183.988281 182.738281 184.164062 182.828125 C 184.386719 182.953125 184.617188 183.078125 184.847656 183.1875 C 185.058594 183.304688 185.273438 183.414062 185.488281 183.519531 C 185.550781 183.546875 185.609375 183.582031 185.671875 183.605469 C 185.886719 183.710938 186.105469 183.816406 186.332031 183.921875 C 186.550781 184.019531 186.777344 184.121094 187 184.21875 C 187.226562 184.316406 187.453125 184.414062 187.679688 184.511719 C 187.863281 184.585938 188.050781 184.664062 188.242188 184.734375 C 188.457031 184.824219 188.671875 184.90625 188.886719 184.988281 C 194.394531 187.082031 201.023438 188.289062 208.234375 188.289062 C 222.199219 188.289062 234 183.761719 239.632812 177.058594 " fill-opacity="1" fill-rule="nonzero"/></g><g fill="#ffffff" fill-opacity="1"><g transform="translate(124.111724, 272.825416)"><g><path d="M 10.03125 0 L -0.890625 -26.046875 L 5.8125 -26.046875 L 12.375 -8.9375 L 18.9375 -26.046875 L 25.625 -26.046875 L 14.703125 0 Z M 10.03125 0 "/></g></g></g><g fill="#ffffff" fill-opacity="1"><g transform="translate(148.853597, 272.825416)"><g><path d="M 7.828125 -26.046875 L 7.828125 0 L 1.890625 0 L 1.890625 -26.046875 Z M 7.828125 -26.046875 "/></g></g></g><g fill="#ffffff" fill-opacity="1"><g transform="translate(158.573625, 272.825416)"><g><path d="M 0.25 -20.828125 L 0.25 -26.046875 L 18.5625 -26.046875 L 18.5625 -20.828125 L 12.375 -20.828125 L 12.375 0 L 6.4375 0 L 6.4375 -20.828125 Z M 0.25 -20.828125 "/></g></g></g><g fill="#ffffff" fill-opacity="1"><g transform="translate(177.382503, 272.825416)"><g><path d="M 15.125 -26.046875 L 25.625 0 L 19.25 0 L 17.328125 -5.203125 L 7.421875 -5.203125 L 5.484375 0 L -0.890625 0 L 9.625 -26.046875 Z M 15.3125 -10.421875 L 12.40625 -17.984375 L 12.34375 -17.984375 L 9.4375 -10.421875 Z M 15.3125 -10.421875 "/></g></g></g><g fill="#ffffff" fill-opacity="1"><g transform="translate(202.124376, 272.825416)"><g><path d="M 7.828125 -26.046875 L 7.828125 -5.203125 L 16.796875 -5.203125 L 16.796875 0 L 1.890625 0 L 1.890625 -26.046875 Z M 7.828125 -26.046875 "/></g></g></g><g fill="#ffffff" fill-opacity="1"><g transform="translate(219.954933, 272.825416)"><g><path d="M 7.828125 -26.046875 L 7.828125 0 L 1.890625 0 L 1.890625 -26.046875 Z M 7.828125 -26.046875 "/></g></g></g><g fill="#ffffff" fill-opacity="1"><g transform="translate(229.67496, 272.825416)"><g><path d="M 11.484375 -26.515625 C 12.898438 -26.515625 14.28125 -26.304688 15.625 -25.890625 C 16.96875 -25.484375 17.96875 -25.082031 18.625 -24.6875 L 19.5625 -24.046875 L 17.171875 -19.3125 C 16.984375 -19.4375 16.71875 -19.597656 16.375 -19.796875 C 16.039062 -20.003906 15.410156 -20.273438 14.484375 -20.609375 C 13.554688 -20.941406 12.695312 -21.109375 11.90625 -21.109375 C 10.914062 -21.109375 10.148438 -20.898438 9.609375 -20.484375 C 9.078125 -20.066406 8.8125 -19.5 8.8125 -18.78125 C 8.8125 -18.425781 8.9375 -18.09375 9.1875 -17.78125 C 9.4375 -17.476562 9.863281 -17.148438 10.46875 -16.796875 C 11.082031 -16.453125 11.617188 -16.175781 12.078125 -15.96875 C 12.546875 -15.757812 13.265625 -15.445312 14.234375 -15.03125 C 15.921875 -14.3125 17.359375 -13.335938 18.546875 -12.109375 C 19.734375 -10.878906 20.328125 -9.484375 20.328125 -7.921875 C 20.328125 -6.429688 20.054688 -5.125 19.515625 -4 C 18.984375 -2.882812 18.25 -2.007812 17.3125 -1.375 C 16.375 -0.75 15.335938 -0.285156 14.203125 0.015625 C 13.066406 0.316406 11.835938 0.46875 10.515625 0.46875 C 9.378906 0.46875 8.265625 0.351562 7.171875 0.125 C 6.078125 -0.101562 5.160156 -0.390625 4.421875 -0.734375 C 3.679688 -1.085938 3.015625 -1.429688 2.421875 -1.765625 C 1.835938 -2.097656 1.410156 -2.382812 1.140625 -2.625 L 0.71875 -2.96875 L 3.6875 -7.953125 C 3.945312 -7.742188 4.296875 -7.472656 4.734375 -7.140625 C 5.171875 -6.816406 5.953125 -6.378906 7.078125 -5.828125 C 8.210938 -5.285156 9.207031 -5.015625 10.0625 -5.015625 C 12.570312 -5.015625 13.828125 -5.867188 13.828125 -7.578125 C 13.828125 -7.929688 13.734375 -8.257812 13.546875 -8.5625 C 13.367188 -8.875 13.054688 -9.179688 12.609375 -9.484375 C 12.160156 -9.785156 11.757812 -10.023438 11.40625 -10.203125 C 11.0625 -10.390625 10.492188 -10.664062 9.703125 -11.03125 C 8.910156 -11.394531 8.328125 -11.675781 7.953125 -11.875 C 6.378906 -12.644531 5.160156 -13.613281 4.296875 -14.78125 C 3.429688 -15.945312 3 -17.207031 3 -18.5625 C 3 -20.894531 3.859375 -22.800781 5.578125 -24.28125 C 7.304688 -25.769531 9.273438 -26.515625 11.484375 -26.515625 Z M 11.484375 -26.515625 "/></g></g></g><path stroke-linecap="round" transform="matrix(0.75, 0, 0, 0.75, 101.740632, 224.322904)" fill="none" stroke-linejoin="miter" d="M 3.002074 3.001753 L 221.418755 3.001753 " stroke="#ffffff" stroke-width="6" stroke-opacity="1" stroke-miterlimit="4"/></svg>